<svg width="67" height="30" viewBox="0 0 67 30" fill="none" xmlns="http://www.w3.org/2000/svg">
<path d="M14.72 29.2C12.88 29.2 11.12 28.88 9.44 28.24C7.78667 27.5733 6.32 26.6133 5.04 25.36C3.76 24.08 2.74667 22.5467 2 20.76C1.28 18.9467 0.92 16.88 0.92 14.56C0.92 12.56 1.29333 10.7067 2.04 9C2.78667 7.29333 3.81333 5.8 5.12 4.52C6.45333 3.21333 8 2.2 9.76 1.48C11.52 0.759999 13.4267 0.399999 15.48 0.399999C18.04 0.399999 20.36 0.959999 22.44 2.08C24.52 3.17333 26.0667 4.68 27.08 6.6L21.28 11.04C20.72 9.92 19.88 9.02667 18.76 8.36C17.64 7.66666 16.4533 7.32 15.2 7.32C14.2667 7.32 13.4133 7.50667 12.64 7.88C11.8667 8.25333 11.1867 8.77333 10.6 9.44C10.04 10.1067 9.6 10.9067 9.28 11.84C8.98667 12.7467 8.84 13.7467 8.84 14.84C8.84 15.96 9 16.9733 9.32 17.88C9.64 18.7867 10.08 19.5733 10.64 20.24C11.2267 20.88 11.92 21.3867 12.72 21.76C13.52 22.1067 14.4133 22.28 15.4 22.28C16.6533 22.28 17.8533 21.9733 19 21.36C20.1467 20.72 21.1867 19.8267 22.12 18.68V26.28C19.9867 28.2267 17.52 29.2 14.72 29.2ZM21.72 19.48H16.48V13.88H28.16V29H21.72V19.48ZM32.0103 29V0.599998H42.9303C46.077 0.599998 48.7036 1.24 50.8103 2.52C52.9436 3.77333 54.5436 5.48 55.6103 7.64C56.7036 9.77333 57.2503 12.1467 57.2503 14.76C57.2503 17.64 56.6503 20.1467 55.4503 22.28C54.277 24.4133 52.6103 26.0667 50.4503 27.24C48.317 28.4133 45.8103 29 42.9303 29H32.0103ZM49.3303 14.76C49.3303 13.2933 49.077 12.0133 48.5703 10.92C48.0636 9.8 47.3303 8.93333 46.3703 8.32C45.4103 7.70667 44.2636 7.4 42.9303 7.4H39.8103V22.2H42.9303C44.2903 22.2 45.437 21.88 46.3703 21.24C47.3303 20.6 48.0636 19.72 48.5703 18.6C49.077 17.4533 49.3303 16.1733 49.3303 14.76ZM60.2031 29V21.64H66.3631V29H60.2031Z" fill="white"/>
</svg>
